<svg xmlns="http://www.w3.org/2000/svg" xmlns:xlink="http://www.w3.org/1999/xlink" width="500" zoomAndPan="magnify" viewBox="0 0 375 374.999991" height="500" preserveAspectRatio="xMidYMid meet" version="1.0"><defs><g/><clipPath id="id1"><path d="M 256 150.265625 L 374.992188 150.265625 L 374.992188 224.515625 L 256 224.515625 Z M 256 150.265625 " clip-rule="nonzero"/></clipPath><clipPath id="id2"><path d="M 0 150.265625 L 96 150.265625 L 96 224.515625 L 0 224.515625 Z M 0 150.265625 " clip-rule="nonzero"/></clipPath><clipPath id="id3"><path d="M 256 150.265625 L 299 150.265625 L 299 219 L 256 219 Z M 256 150.265625 " clip-rule="nonzero"/></clipPath><clipPath id="id4"><path d="M 54 150.265625 L 96 150.265625 L 96 219 L 54 219 Z M 54 150.265625 " clip-rule="nonzero"/></clipPath></defs><g clip-path="url(#id1)"><path fill="#ff9094" d="M 264.847656 150.394531 C 283.933594 154.222656 302.691406 159.265625 321.125 165.527344 C 339.558594 171.785156 357.515625 179.210938 374.992188 187.800781 C 361.929688 188.699219 349.179688 190.203125 336.746094 192.3125 C 344.136719 202.832031 350.925781 213.527344 357.117188 224.398438 C 325.171875 208.703125 291.761719 197.359375 256.882812 190.359375 C 259.535156 177.035156 262.1875 163.710938 264.847656 150.394531 Z M 264.847656 150.394531 " fill-opacity="1" fill-rule="nonzero"/></g><g clip-path="url(#id2)"><path fill="#ff9094" d="M -22.511719 187.800781 C -5.03125 179.210938 12.925781 171.785156 31.363281 165.523438 C 49.800781 159.265625 68.5625 154.222656 87.648438 150.394531 C 90.304688 163.707031 92.960938 177.03125 95.621094 190.359375 C 60.734375 197.355469 27.316406 208.699219 -4.628906 224.398438 C 1.664062 213.746094 8.535156 203.257812 15.984375 192.929688 C 3.496094 190.625 -9.335938 188.914062 -22.511719 187.800781 Z M -22.511719 187.800781 " fill-opacity="1" fill-rule="nonzero"/></g><g clip-path="url(#id3)"><path fill="#ff656a" d="M 264.847656 150.394531 C 276.476562 159.542969 287.585938 169.285156 298.183594 179.613281 C 294.355469 192.640625 290.527344 205.667969 286.699219 218.691406 C 277.265625 208.699219 267.320312 199.25 256.863281 190.34375 C 259.527344 177.027344 262.1875 163.710938 264.847656 150.394531 Z M 264.847656 150.394531 " fill-opacity="1" fill-rule="nonzero"/></g><g clip-path="url(#id4)"><path fill="#ff656a" d="M 54.230469 179.378906 C 64.859375 169.125 76 159.460938 87.648438 150.390625 C 90.304688 163.703125 92.960938 177.027344 95.621094 190.355469 C 85.144531 199.179688 75.175781 208.546875 65.714844 218.457031 Z M 54.230469 179.378906 " fill-opacity="1" fill-rule="nonzero"/></g><path fill="#f1a1a1" d="M 54.300781 179.613281 C 64.1875 176.695312 74.164062 174.132812 84.234375 171.929688 C 94.304688 169.726562 104.441406 167.886719 114.644531 166.410156 C 124.847656 164.933594 135.085938 163.828125 145.367188 163.085938 C 155.648438 162.347656 165.945312 161.976562 176.25 161.976562 C 186.558594 161.976562 196.851562 162.347656 207.132812 163.085938 C 217.414062 163.828125 227.65625 164.933594 237.859375 166.410156 C 248.058594 167.886719 258.195312 169.726562 268.265625 171.929688 C 278.335938 174.132812 288.316406 176.695312 298.203125 179.613281 C 294.371094 192.640625 290.542969 205.667969 286.714844 218.691406 C 277.761719 216.046875 268.722656 213.726562 259.597656 211.730469 C 250.476562 209.734375 241.296875 208.066406 232.054688 206.730469 C 222.8125 205.394531 213.539062 204.390625 204.226562 203.722656 C 194.914062 203.050781 185.585938 202.714844 176.25 202.714844 C 166.914062 202.714844 157.589844 203.050781 148.277344 203.722656 C 138.964844 204.390625 129.6875 205.394531 120.445312 206.730469 C 111.207031 208.066406 102.023438 209.734375 92.902344 211.730469 C 83.78125 213.726562 74.742188 216.046875 65.785156 218.691406 C 61.953125 205.671875 58.125 192.644531 54.300781 179.613281 Z M 54.300781 179.613281 " fill-opacity="1" fill-rule="nonzero"/><g fill="#535353" fill-opacity="0.6118"><g transform="translate(88.593951, 208.178679)"><g><path d="M 8.8125 -2.34375 C 6.113281 -1.488281 3.753906 -1.695312 1.734375 -2.96875 C 0.648438 -3.65625 -0.109375 -4.675781 -0.546875 -6.03125 C -1.128906 -7.851562 -0.957031 -9.554688 -0.03125 -11.140625 C 0.882812 -12.722656 2.191406 -13.890625 3.890625 -14.640625 C 0.941406 -14.523438 -0.90625 -15.660156 -1.65625 -18.046875 C -2.25 -19.890625 -1.921875 -21.601562 -0.671875 -23.1875 C 0.566406 -24.78125 2.203125 -25.898438 4.234375 -26.546875 C 6.265625 -27.191406 8.085938 -27.3125 9.703125 -26.90625 C 11.328125 -26.507812 12.359375 -25.617188 12.796875 -24.234375 C 13.046875 -23.441406 13.070312 -22.617188 12.875 -21.765625 L 12.75 -21.34375 C 11.875 -21.0625 10.890625 -20.894531 9.796875 -20.84375 C 8.703125 -20.789062 7.828125 -20.894531 7.171875 -21.15625 L 6.453125 -24.546875 C 6.078125 -24.597656 5.726562 -24.570312 5.40625 -24.46875 C 4.738281 -24.257812 4.34375 -23.738281 4.21875 -22.90625 C 4.101562 -22.082031 4.191406 -21.195312 4.484375 -20.25 C 4.785156 -19.3125 5.128906 -18.597656 5.515625 -18.109375 C 5.898438 -17.617188 6.351562 -17.296875 6.875 -17.140625 C 7.394531 -16.984375 7.835938 -16.898438 8.203125 -16.890625 C 8.578125 -16.890625 9.085938 -16.914062 9.734375 -16.96875 L 10.078125 -15.03125 C 8.585938 -14.5625 7.351562 -13.707031 6.375 -12.46875 C 5.40625 -11.238281 5.144531 -9.914062 5.59375 -8.5 C 5.914062 -7.488281 6.472656 -6.851562 7.265625 -6.59375 C 8.054688 -6.332031 8.898438 -6.34375 9.796875 -6.625 C 10.691406 -6.914062 11.554688 -7.441406 12.390625 -8.203125 C 13.234375 -8.972656 13.90625 -9.804688 14.40625 -10.703125 L 16.3125 -9.734375 C 15.800781 -8.171875 14.863281 -6.6875 13.5 -5.28125 C 12.144531 -3.882812 10.582031 -2.90625 8.8125 -2.34375 Z M 8.8125 -2.34375 "/></g></g></g><g fill="#535353" fill-opacity="0.6118"><g transform="translate(105.478808, 202.789636)"><g><path d="M 12.890625 -2.3125 C 11.984375 -2.09375 10.53125 -2.25 8.53125 -2.78125 C 6.53125 -3.3125 5.375 -3.578125 5.0625 -3.578125 C 4.175781 -1.523438 3.164062 -0.359375 2.03125 -0.078125 C 1.71875 -0.00390625 1.148438 -0.316406 0.328125 -1.015625 C -0.484375 -1.722656 -0.976562 -2.445312 -1.15625 -3.1875 C -1.238281 -3.519531 -1 -4.015625 -0.4375 -4.671875 C 0.113281 -5.328125 0.800781 -5.863281 1.625 -6.28125 C 1.875 -7.8125 1.945312 -10.046875 1.84375 -12.984375 C 1.738281 -15.929688 1.425781 -18.46875 0.90625 -20.59375 C 0.8125 -20.945312 0.597656 -21.3125 0.265625 -21.6875 C -0.0546875 -22.0625 -0.363281 -22.351562 -0.65625 -22.5625 L -1.125 -22.875 L -1.171875 -23.546875 C -0.109375 -24.390625 2.316406 -25.28125 6.109375 -26.21875 C 6.597656 -25.75 7.003906 -24.859375 7.328125 -23.546875 C 7.648438 -22.242188 7.625 -19.828125 7.25 -16.296875 C 6.875 -12.765625 6.40625 -9.664062 5.84375 -7 C 8.164062 -6.96875 10.328125 -7.195312 12.328125 -7.6875 C 12.773438 -7.800781 13.125 -8 13.375 -8.28125 C 13.625 -8.570312 13.832031 -9.113281 14 -9.90625 L 15.953125 -9.71875 C 16.117188 -7.5625 15.972656 -5.867188 15.515625 -4.640625 C 15.054688 -3.410156 14.179688 -2.632812 12.890625 -2.3125 Z M 12.890625 -2.3125 "/></g></g></g><g fill="#535353" fill-opacity="0.6118"><g transform="translate(122.131346, 198.769199)"><g><path d="M 7.359375 -5.734375 C 7.472656 -5.109375 7.675781 -4.820312 7.96875 -4.875 C 8.457031 -4.96875 9.03125 -5.226562 9.6875 -5.65625 L 10.765625 -3.9375 C 9.003906 -2.039062 7.171875 -0.914062 5.265625 -0.5625 C 4.148438 -0.351562 3.207031 -0.503906 2.4375 -1.015625 C 1.664062 -1.523438 1.171875 -2.359375 0.953125 -3.515625 C 0.742188 -4.671875 0.820312 -7.382812 1.1875 -11.65625 C 1.5625 -15.9375 1.65625 -18.878906 1.46875 -20.484375 C 1.394531 -20.867188 1.195312 -21.257812 0.875 -21.65625 C 0.550781 -22.050781 0.253906 -22.363281 -0.015625 -22.59375 L -0.453125 -22.921875 L -0.5 -23.609375 C 0.800781 -24.328125 3.222656 -25.015625 6.765625 -25.671875 C 7.242188 -25.085938 7.554688 -24.414062 7.703125 -23.65625 C 7.941406 -22.363281 7.867188 -19.445312 7.484375 -14.90625 C 7.109375 -10.363281 7.066406 -7.304688 7.359375 -5.734375 Z M 7.359375 -5.734375 "/></g></g></g><g fill="#535353" fill-opacity="0.6118"><g transform="translate(133.47778, 196.500611)"><g><path d="M 3.140625 -0.828125 C 3.035156 -0.316406 2.539062 -0.0078125 1.65625 0.09375 C 0.769531 0.207031 -0.144531 0.015625 -1.09375 -0.484375 C -0.625 -2.441406 0.375 -5.734375 1.90625 -10.359375 C 3.4375 -14.992188 4.414062 -18.429688 4.84375 -20.671875 C 4.875 -20.941406 4.875 -21.171875 4.84375 -21.359375 C 4.820312 -21.546875 4.710938 -21.796875 4.515625 -22.109375 C 4.328125 -22.429688 4.128906 -22.679688 3.921875 -22.859375 L 3.65625 -23.140625 L 3.703125 -23.84375 C 5.628906 -24.601562 7.957031 -25.15625 10.6875 -25.5 L 13.28125 -25.703125 C 13.53125 -25.523438 13.816406 -25.023438 14.140625 -24.203125 C 14.472656 -23.378906 14.78125 -22.117188 15.0625 -20.421875 C 15.34375 -18.722656 15.78125 -15.546875 16.375 -10.890625 C 16.84375 -7.273438 17.515625 -5.519531 18.390625 -5.625 C 18.609375 -5.65625 19.070312 -5.832031 19.78125 -6.15625 L 20.109375 -6.28125 L 21.046875 -4.46875 C 20.210938 -3.664062 19.203125 -2.984375 18.015625 -2.421875 C 16.835938 -1.867188 15.757812 -1.53125 14.78125 -1.40625 C 13.351562 -1.226562 12.320312 -1.550781 11.6875 -2.375 C 11.050781 -3.195312 10.644531 -4.304688 10.46875 -5.703125 C 10.300781 -7.097656 10.195312 -8.0625 10.15625 -8.59375 C 9.71875 -8.632812 8.882812 -8.578125 7.65625 -8.421875 C 6.425781 -8.273438 5.375 -8.023438 4.5 -7.671875 C 3.945312 -5.359375 3.492188 -3.078125 3.140625 -0.828125 Z M 9.953125 -11.4375 C 9.816406 -13.394531 9.625 -15.359375 9.375 -17.328125 C 9.132812 -19.296875 8.847656 -20.71875 8.515625 -21.59375 C 8.285156 -21.5625 8.128906 -21.519531 8.046875 -21.46875 C 7.734375 -19.90625 6.832031 -16.375 5.34375 -10.875 Z M 9.953125 -11.4375 "/></g></g></g><g fill="#535353" fill-opacity="0.6118"><g transform="translate(153.12848, 193.986519)"><g><path d="M 1.984375 0.125 L 1.40625 0.140625 C 1.34375 -1.210938 1.828125 -4.679688 2.859375 -10.265625 C 3.898438 -15.859375 4.40625 -19.09375 4.375 -19.96875 C 4.351562 -20.351562 4.21875 -20.78125 3.96875 -21.25 C 3.71875 -21.71875 3.472656 -22.082031 3.234375 -22.34375 L 2.875 -22.765625 L 2.953125 -23.4375 C 4.328125 -23.957031 6.742188 -24.289062 10.203125 -24.4375 C 10.640625 -23.59375 10.882812 -22.628906 10.9375 -21.546875 L 10.9375 -21.484375 C 13.5625 -23.578125 15.890625 -24.664062 17.921875 -24.75 C 19.109375 -24.789062 20.101562 -24.472656 20.90625 -23.796875 C 21.707031 -23.117188 22.132812 -22.117188 22.1875 -20.796875 C 22.238281 -19.484375 21.820312 -16.8125 20.9375 -12.78125 C 20.0625 -8.757812 19.640625 -6.3125 19.671875 -5.4375 C 19.703125 -4.570312 19.867188 -4.144531 20.171875 -4.15625 C 20.578125 -4.175781 21.175781 -4.347656 21.96875 -4.671875 L 22.765625 -2.78125 C 20.617188 -1.175781 18.597656 -0.335938 16.703125 -0.265625 C 15.617188 -0.222656 14.78125 -0.472656 14.1875 -1.015625 C 13.59375 -1.566406 13.265625 -2.507812 13.203125 -3.84375 C 13.148438 -5.175781 13.535156 -7.722656 14.359375 -11.484375 C 15.191406 -15.253906 15.59375 -17.59375 15.5625 -18.5 C 15.519531 -19.644531 14.992188 -20.195312 13.984375 -20.15625 C 13.234375 -20.125 12.128906 -19.613281 10.671875 -18.625 C 10.515625 -17.539062 10.164062 -15.65625 9.625 -12.96875 C 8.4375 -6.863281 7.878906 -2.875 7.953125 -1 C 6.984375 -0.375 4.992188 0 1.984375 0.125 Z M 1.984375 0.125 "/></g></g></g><g fill="#535353" fill-opacity="0.6118"><g transform="translate(175.55426, 193.100983)"><g><path d="M 3.234375 -0.296875 C 3.046875 0.179688 2.503906 0.398438 1.609375 0.359375 C 0.722656 0.328125 -0.140625 -0.0078125 -0.984375 -0.65625 C -0.210938 -2.519531 1.304688 -5.609375 3.578125 -9.921875 C 5.859375 -14.234375 7.394531 -17.457031 8.1875 -19.59375 C 8.257812 -19.863281 8.296875 -20.09375 8.296875 -20.28125 C 8.304688 -20.46875 8.238281 -20.734375 8.09375 -21.078125 C 7.957031 -21.421875 7.800781 -21.703125 7.625 -21.921875 L 7.40625 -22.234375 L 7.5625 -22.90625 C 9.59375 -23.351562 11.984375 -23.519531 14.734375 -23.40625 L 17.3125 -23.171875 C 17.53125 -22.953125 17.734375 -22.410156 17.921875 -21.546875 C 18.117188 -20.679688 18.210938 -19.390625 18.203125 -17.671875 C 18.203125 -15.960938 18.113281 -12.753906 17.9375 -8.046875 C 17.800781 -4.421875 18.175781 -2.585938 19.0625 -2.546875 C 19.28125 -2.535156 19.769531 -2.628906 20.53125 -2.828125 L 20.875 -2.90625 L 21.5 -0.953125 C 20.539062 -0.296875 19.429688 0.207031 18.171875 0.5625 C 16.921875 0.914062 15.800781 1.070312 14.8125 1.03125 C 13.375 0.96875 12.40625 0.484375 11.90625 -0.421875 C 11.414062 -1.335938 11.195312 -2.5 11.25 -3.90625 C 11.3125 -5.3125 11.367188 -6.285156 11.421875 -6.828125 C 10.992188 -6.941406 10.160156 -7.023438 8.921875 -7.078125 C 7.691406 -7.128906 6.617188 -7.046875 5.703125 -6.828125 C 4.773438 -4.640625 3.953125 -2.460938 3.234375 -0.296875 Z M 11.671875 -9.65625 C 11.859375 -11.601562 11.992188 -13.566406 12.078125 -15.546875 C 12.160156 -17.535156 12.113281 -18.988281 11.9375 -19.90625 C 11.707031 -19.914062 11.546875 -19.898438 11.453125 -19.859375 C 10.898438 -18.367188 9.429688 -15.03125 7.046875 -9.84375 Z M 11.671875 -9.65625 "/></g></g></g><g fill="#535353" fill-opacity="0.6118"><g transform="translate(201.847722, 194.471403)"><g><path d="M 8.015625 0.53125 C 6.617188 0.925781 4.972656 0.984375 3.078125 0.703125 C 2.429688 0.597656 1.859375 0.453125 1.359375 0.265625 C 1.578125 -1.203125 2.695312 -4.421875 4.71875 -9.390625 C 6.738281 -14.367188 7.851562 -17.523438 8.0625 -18.859375 C 8.132812 -19.398438 7.835938 -20.179688 7.171875 -21.203125 L 6.875 -21.671875 L 7.078125 -22.40625 C 10.191406 -22.476562 13.601562 -22.238281 17.3125 -21.6875 C 19.539062 -21.351562 21.234375 -20.660156 22.390625 -19.609375 C 23.554688 -18.566406 24.019531 -17.226562 23.78125 -15.59375 C 23.539062 -13.957031 22.875 -12.53125 21.78125 -11.3125 C 20.6875 -10.09375 19.257812 -9.222656 17.5 -8.703125 C 17.863281 -6.109375 18.273438 -4.054688 18.734375 -2.546875 C 19.203125 -1.046875 19.644531 -0.265625 20.0625 -0.203125 C 20.425781 -0.148438 21 -0.203125 21.78125 -0.359375 L 22.21875 -0.421875 L 22.734375 1.5 C 20.554688 2.707031 18.378906 3.148438 16.203125 2.828125 C 14.035156 2.503906 12.78125 1.195312 12.4375 -1.09375 C 12.144531 -3.09375 12.03125 -5.535156 12.09375 -8.421875 L 10.90625 -8.59375 C 9.207031 -4.070312 8.242188 -1.03125 8.015625 0.53125 Z M 12.71875 -11.296875 C 13.4375 -11.191406 14.085938 -11.320312 14.671875 -11.6875 C 15.265625 -12.0625 15.75 -12.582031 16.125 -13.25 C 16.832031 -14.582031 17.28125 -15.90625 17.46875 -17.21875 C 17.664062 -18.539062 17.171875 -19.289062 15.984375 -19.46875 C 15.617188 -19.519531 15.257812 -19.535156 14.90625 -19.515625 C 14.769531 -18.835938 13.8125 -16.160156 12.03125 -11.484375 C 12.1875 -11.410156 12.414062 -11.347656 12.71875 -11.296875 Z M 12.71875 -11.296875 "/></g></g></g><g fill="#535353" fill-opacity="0.6118"><g transform="translate(222.836018, 197.627417)"><g><path d="M 8.8125 2.4375 C 6.039062 1.8125 4.109375 0.441406 3.015625 -1.671875 C 2.421875 -2.816406 2.28125 -4.085938 2.59375 -5.484375 C 3.019531 -7.347656 4.023438 -8.726562 5.609375 -9.625 C 7.203125 -10.53125 8.925781 -10.875 10.78125 -10.65625 C 8.1875 -12.039062 7.164062 -13.953125 7.71875 -16.390625 C 8.144531 -18.273438 9.296875 -19.585938 11.171875 -20.328125 C 13.046875 -21.066406 15.019531 -21.195312 17.09375 -20.71875 C 19.175781 -20.25 20.8125 -19.429688 22 -18.265625 C 23.195312 -17.097656 23.632812 -15.804688 23.3125 -14.390625 C 23.125 -13.578125 22.734375 -12.863281 22.140625 -12.25 L 21.796875 -11.9375 C 20.910156 -12.144531 19.976562 -12.5 19 -13 C 18.03125 -13.507812 17.332031 -14.039062 16.90625 -14.59375 L 18 -17.890625 C 17.695312 -18.128906 17.382812 -18.285156 17.0625 -18.359375 C 16.382812 -18.515625 15.78125 -18.265625 15.25 -17.609375 C 14.71875 -16.960938 14.34375 -16.15625 14.125 -15.1875 C 13.90625 -14.226562 13.832031 -13.4375 13.90625 -12.8125 C 13.988281 -12.195312 14.222656 -11.691406 14.609375 -11.296875 C 14.992188 -10.898438 15.34375 -10.601562 15.65625 -10.40625 C 15.96875 -10.207031 16.414062 -9.96875 17 -9.6875 L 16.3125 -7.84375 C 14.789062 -8.1875 13.289062 -8.070312 11.8125 -7.5 C 10.34375 -6.9375 9.445312 -5.929688 9.125 -4.484375 C 8.882812 -3.441406 9.039062 -2.609375 9.59375 -1.984375 C 10.144531 -1.367188 10.878906 -0.957031 11.796875 -0.75 C 12.710938 -0.539062 13.726562 -0.550781 14.84375 -0.78125 C 15.96875 -1.007812 16.96875 -1.398438 17.84375 -1.953125 L 19 -0.125 C 17.757812 0.96875 16.203125 1.769531 14.328125 2.28125 C 12.453125 2.800781 10.613281 2.851562 8.8125 2.4375 Z M 8.8125 2.4375 "/></g></g></g><g fill="#535353" fill-opacity="0.6118"><g transform="translate(240.057076, 201.423828)"><g><path d="M 10.515625 9.53125 C 9.378906 9.863281 8.421875 10.015625 7.640625 9.984375 C 6.867188 9.953125 6.046875 9.800781 5.171875 9.53125 C 4.304688 9.257812 3.597656 8.722656 3.046875 7.921875 C 2.503906 7.117188 2.363281 6.296875 2.625 5.453125 C 2.882812 4.609375 3.3125 3.953125 3.90625 3.484375 C 4.507812 3.023438 5.273438 2.71875 6.203125 2.5625 C 7.835938 2.257812 9.789062 2.21875 12.0625 2.4375 C 12.320312 2.125 12.8125 1.410156 13.53125 0.296875 C 12.539062 0.484375 11.332031 0.566406 9.90625 0.546875 C 8.476562 0.523438 7.253906 0.359375 6.234375 0.046875 C 5.222656 -0.265625 4.472656 -0.863281 3.984375 -1.75 C 3.503906 -2.644531 3.445312 -3.6875 3.8125 -4.875 C 4.1875 -6.070312 5.253906 -8.128906 7.015625 -11.046875 C 8.785156 -13.960938 9.878906 -16.101562 10.296875 -17.46875 C 10.421875 -17.875 10.445312 -18.34375 10.375 -18.875 C 10.300781 -19.40625 10.203125 -19.835938 10.078125 -20.171875 L 9.890625 -20.65625 L 10.203125 -21.265625 C 11.660156 -21.273438 14.023438 -20.773438 17.296875 -19.765625 C 17.492188 -18.929688 17.40625 -17.914062 17.03125 -16.71875 C 16.664062 -15.53125 15.546875 -13.367188 13.671875 -10.234375 C 11.804688 -7.109375 10.78125 -5.234375 10.59375 -4.609375 C 10.257812 -3.523438 10.472656 -2.867188 11.234375 -2.640625 C 12.265625 -2.316406 13.617188 -2.320312 15.296875 -2.65625 C 16.929688 -5.445312 18.445312 -8.222656 19.84375 -10.984375 C 21.25 -13.742188 22.15625 -15.78125 22.5625 -17.09375 C 23.34375 -17.15625 24.335938 -17.085938 25.546875 -16.890625 C 26.765625 -16.703125 27.753906 -16.492188 28.515625 -16.265625 L 29.21875 -16.046875 C 28.707031 -14.398438 27.363281 -11.625 25.1875 -7.71875 C 24.414062 -6.363281 23.285156 -4.367188 21.796875 -1.734375 C 20.304688 0.898438 18.894531 2.984375 17.5625 4.515625 C 16.226562 6.046875 15.003906 7.179688 13.890625 7.921875 C 12.773438 8.660156 11.648438 9.195312 10.515625 9.53125 Z M 5.203125 5.609375 C 5.054688 6.078125 5.296875 6.410156 5.921875 6.609375 C 6.546875 6.804688 7.347656 6.65625 8.328125 6.15625 C 9.304688 5.664062 10.070312 5.097656 10.625 4.453125 C 9.3125 4.265625 8.117188 4.269531 7.046875 4.46875 C 5.984375 4.664062 5.367188 5.046875 5.203125 5.609375 Z M 5.203125 5.609375 "/></g></g></g><g fill="#535353" fill-opacity="1"><g transform="translate(89.956806, 205.503918)"><g><path d="M 8.8125 -2.34375 C 6.113281 -1.488281 3.753906 -1.695312 1.734375 -2.96875 C 0.648438 -3.65625 -0.109375 -4.675781 -0.546875 -6.03125 C -1.128906 -7.851562 -0.957031 -9.554688 -0.03125 -11.140625 C 0.882812 -12.722656 2.191406 -13.890625 3.890625 -14.640625 C 0.941406 -14.523438 -0.90625 -15.660156 -1.65625 -18.046875 C -2.25 -19.890625 -1.921875 -21.601562 -0.671875 -23.1875 C 0.566406 -24.78125 2.203125 -25.898438 4.234375 -26.546875 C 6.265625 -27.191406 8.085938 -27.3125 9.703125 -26.90625 C 11.328125 -26.507812 12.359375 -25.617188 12.796875 -24.234375 C 13.046875 -23.441406 13.070312 -22.617188 12.875 -21.765625 L 12.75 -21.34375 C 11.875 -21.0625 10.890625 -20.894531 9.796875 -20.84375 C 8.703125 -20.789062 7.828125 -20.894531 7.171875 -21.15625 L 6.453125 -24.546875 C 6.078125 -24.597656 5.726562 -24.570312 5.40625 -24.46875 C 4.738281 -24.257812 4.34375 -23.738281 4.21875 -22.90625 C 4.101562 -22.082031 4.191406 -21.195312 4.484375 -20.25 C 4.785156 -19.3125 5.128906 -18.597656 5.515625 -18.109375 C 5.898438 -17.617188 6.351562 -17.296875 6.875 -17.140625 C 7.394531 -16.984375 7.835938 -16.898438 8.203125 -16.890625 C 8.578125 -16.890625 9.085938 -16.914062 9.734375 -16.96875 L 10.078125 -15.03125 C 8.585938 -14.5625 7.351562 -13.707031 6.375 -12.46875 C 5.40625 -11.238281 5.144531 -9.914062 5.59375 -8.5 C 5.914062 -7.488281 6.472656 -6.851562 7.265625 -6.59375 C 8.054688 -6.332031 8.898438 -6.34375 9.796875 -6.625 C 10.691406 -6.914062 11.554688 -7.441406 12.390625 -8.203125 C 13.234375 -8.972656 13.90625 -9.804688 14.40625 -10.703125 L 16.3125 -9.734375 C 15.800781 -8.171875 14.863281 -6.6875 13.5 -5.28125 C 12.144531 -3.882812 10.582031 -2.90625 8.8125 -2.34375 Z M 8.8125 -2.34375 "/></g></g></g><g fill="#535353" fill-opacity="1"><g transform="translate(106.841662, 200.114875)"><g><path d="M 12.890625 -2.3125 C 11.984375 -2.09375 10.53125 -2.25 8.53125 -2.78125 C 6.53125 -3.3125 5.375 -3.578125 5.0625 -3.578125 C 4.175781 -1.523438 3.164062 -0.359375 2.03125 -0.078125 C 1.71875 -0.00390625 1.148438 -0.316406 0.328125 -1.015625 C -0.484375 -1.722656 -0.976562 -2.445312 -1.15625 -3.1875 C -1.238281 -3.519531 -1 -4.015625 -0.4375 -4.671875 C 0.113281 -5.328125 0.800781 -5.863281 1.625 -6.28125 C 1.875 -7.8125 1.945312 -10.046875 1.84375 -12.984375 C 1.738281 -15.929688 1.425781 -18.46875 0.90625 -20.59375 C 0.8125 -20.945312 0.597656 -21.3125 0.265625 -21.6875 C -0.0546875 -22.0625 -0.363281 -22.351562 -0.65625 -22.5625 L -1.125 -22.875 L -1.171875 -23.546875 C -0.109375 -24.390625 2.316406 -25.28125 6.109375 -26.21875 C 6.597656 -25.75 7.003906 -24.859375 7.328125 -23.546875 C 7.648438 -22.242188 7.625 -19.828125 7.25 -16.296875 C 6.875 -12.765625 6.40625 -9.664062 5.84375 -7 C 8.164062 -6.96875 10.328125 -7.195312 12.328125 -7.6875 C 12.773438 -7.800781 13.125 -8 13.375 -8.28125 C 13.625 -8.570312 13.832031 -9.113281 14 -9.90625 L 15.953125 -9.71875 C 16.117188 -7.5625 15.972656 -5.867188 15.515625 -4.640625 C 15.054688 -3.410156 14.179688 -2.632812 12.890625 -2.3125 Z M 12.890625 -2.3125 "/></g></g></g><g fill="#535353" fill-opacity="1"><g transform="translate(123.494201, 196.094454)"><g><path d="M 7.359375 -5.734375 C 7.472656 -5.109375 7.675781 -4.820312 7.96875 -4.875 C 8.457031 -4.96875 9.03125 -5.226562 9.6875 -5.65625 L 10.765625 -3.9375 C 9.003906 -2.039062 7.171875 -0.914062 5.265625 -0.5625 C 4.148438 -0.351562 3.207031 -0.503906 2.4375 -1.015625 C 1.664062 -1.523438 1.171875 -2.359375 0.953125 -3.515625 C 0.742188 -4.671875 0.820312 -7.382812 1.1875 -11.65625 C 1.5625 -15.9375 1.65625 -18.878906 1.46875 -20.484375 C 1.394531 -20.867188 1.195312 -21.257812 0.875 -21.65625 C 0.550781 -22.050781 0.253906 -22.363281 -0.015625 -22.59375 L -0.453125 -22.921875 L -0.5 -23.609375 C 0.800781 -24.328125 3.222656 -25.015625 6.765625 -25.671875 C 7.242188 -25.085938 7.554688 -24.414062 7.703125 -23.65625 C 7.941406 -22.363281 7.867188 -19.445312 7.484375 -14.90625 C 7.109375 -10.363281 7.066406 -7.304688 7.359375 -5.734375 Z M 7.359375 -5.734375 "/></g></g></g><g fill="#535353" fill-opacity="1"><g transform="translate(134.840627, 193.825866)"><g><path d="M 3.140625 -0.828125 C 3.035156 -0.316406 2.539062 -0.0078125 1.65625 0.09375 C 0.769531 0.207031 -0.144531 0.015625 -1.09375 -0.484375 C -0.625 -2.441406 0.375 -5.734375 1.90625 -10.359375 C 3.4375 -14.992188 4.414062 -18.429688 4.84375 -20.671875 C 4.875 -20.941406 4.875 -21.171875 4.84375 -21.359375 C 4.820312 -21.546875 4.710938 -21.796875 4.515625 -22.109375 C 4.328125 -22.429688 4.128906 -22.679688 3.921875 -22.859375 L 3.65625 -23.140625 L 3.703125 -23.84375 C 5.628906 -24.601562 7.957031 -25.15625 10.6875 -25.5 L 13.28125 -25.703125 C 13.53125 -25.523438 13.816406 -25.023438 14.140625 -24.203125 C 14.472656 -23.378906 14.78125 -22.117188 15.0625 -20.421875 C 15.34375 -18.722656 15.78125 -15.546875 16.375 -10.890625 C 16.84375 -7.273438 17.515625 -5.519531 18.390625 -5.625 C 18.609375 -5.65625 19.070312 -5.832031 19.78125 -6.15625 L 20.109375 -6.28125 L 21.046875 -4.46875 C 20.210938 -3.664062 19.203125 -2.984375 18.015625 -2.421875 C 16.835938 -1.867188 15.757812 -1.53125 14.78125 -1.40625 C 13.351562 -1.226562 12.320312 -1.550781 11.6875 -2.375 C 11.050781 -3.195312 10.644531 -4.304688 10.46875 -5.703125 C 10.300781 -7.097656 10.195312 -8.0625 10.15625 -8.59375 C 9.71875 -8.632812 8.882812 -8.578125 7.65625 -8.421875 C 6.425781 -8.273438 5.375 -8.023438 4.5 -7.671875 C 3.945312 -5.359375 3.492188 -3.078125 3.140625 -0.828125 Z M 9.953125 -11.4375 C 9.816406 -13.394531 9.625 -15.359375 9.375 -17.328125 C 9.132812 -19.296875 8.847656 -20.71875 8.515625 -21.59375 C 8.285156 -21.5625 8.128906 -21.519531 8.046875 -21.46875 C 7.734375 -19.90625 6.832031 -16.375 5.34375 -10.875 Z M 9.953125 -11.4375 "/></g></g></g><g fill="#535353" fill-opacity="1"><g transform="translate(154.491328, 191.311757)"><g><path d="M 1.984375 0.125 L 1.40625 0.140625 C 1.34375 -1.210938 1.828125 -4.679688 2.859375 -10.265625 C 3.898438 -15.859375 4.40625 -19.09375 4.375 -19.96875 C 4.351562 -20.351562 4.21875 -20.78125 3.96875 -21.25 C 3.71875 -21.71875 3.472656 -22.082031 3.234375 -22.34375 L 2.875 -22.765625 L 2.953125 -23.4375 C 4.328125 -23.957031 6.742188 -24.289062 10.203125 -24.4375 C 10.640625 -23.59375 10.882812 -22.628906 10.9375 -21.546875 L 10.9375 -21.484375 C 13.5625 -23.578125 15.890625 -24.664062 17.921875 -24.75 C 19.109375 -24.789062 20.101562 -24.472656 20.90625 -23.796875 C 21.707031 -23.117188 22.132812 -22.117188 22.1875 -20.796875 C 22.238281 -19.484375 21.820312 -16.8125 20.9375 -12.78125 C 20.0625 -8.757812 19.640625 -6.3125 19.671875 -5.4375 C 19.703125 -4.570312 19.867188 -4.144531 20.171875 -4.15625 C 20.578125 -4.175781 21.175781 -4.347656 21.96875 -4.671875 L 22.765625 -2.78125 C 20.617188 -1.175781 18.597656 -0.335938 16.703125 -0.265625 C 15.617188 -0.222656 14.78125 -0.472656 14.1875 -1.015625 C 13.59375 -1.566406 13.265625 -2.507812 13.203125 -3.84375 C 13.148438 -5.175781 13.535156 -7.722656 14.359375 -11.484375 C 15.191406 -15.253906 15.59375 -17.59375 15.5625 -18.5 C 15.519531 -19.644531 14.992188 -20.195312 13.984375 -20.15625 C 13.234375 -20.125 12.128906 -19.613281 10.671875 -18.625 C 10.515625 -17.539062 10.164062 -15.65625 9.625 -12.96875 C 8.4375 -6.863281 7.878906 -2.875 7.953125 -1 C 6.984375 -0.375 4.992188 0 1.984375 0.125 Z M 1.984375 0.125 "/></g></g></g><g fill="#535353" fill-opacity="1"><g transform="translate(176.917121, 190.426221)"><g><path d="M 3.234375 -0.296875 C 3.046875 0.179688 2.503906 0.398438 1.609375 0.359375 C 0.722656 0.328125 -0.140625 -0.0078125 -0.984375 -0.65625 C -0.210938 -2.519531 1.304688 -5.609375 3.578125 -9.921875 C 5.859375 -14.234375 7.394531 -17.457031 8.1875 -19.59375 C 8.257812 -19.863281 8.296875 -20.09375 8.296875 -20.28125 C 8.304688 -20.46875 8.238281 -20.734375 8.09375 -21.078125 C 7.957031 -21.421875 7.800781 -21.703125 7.625 -21.921875 L 7.40625 -22.234375 L 7.5625 -22.90625 C 9.59375 -23.351562 11.984375 -23.519531 14.734375 -23.40625 L 17.3125 -23.171875 C 17.53125 -22.953125 17.734375 -22.410156 17.921875 -21.546875 C 18.117188 -20.679688 18.210938 -19.390625 18.203125 -17.671875 C 18.203125 -15.960938 18.113281 -12.753906 17.9375 -8.046875 C 17.800781 -4.421875 18.175781 -2.585938 19.0625 -2.546875 C 19.28125 -2.535156 19.769531 -2.628906 20.53125 -2.828125 L 20.875 -2.90625 L 21.5 -0.953125 C 20.539062 -0.296875 19.429688 0.207031 18.171875 0.5625 C 16.921875 0.914062 15.800781 1.070312 14.8125 1.03125 C 13.375 0.96875 12.40625 0.484375 11.90625 -0.421875 C 11.414062 -1.335938 11.195312 -2.5 11.25 -3.90625 C 11.3125 -5.3125 11.367188 -6.285156 11.421875 -6.828125 C 10.992188 -6.941406 10.160156 -7.023438 8.921875 -7.078125 C 7.691406 -7.128906 6.617188 -7.046875 5.703125 -6.828125 C 4.773438 -4.640625 3.953125 -2.460938 3.234375 -0.296875 Z M 11.671875 -9.65625 C 11.859375 -11.601562 11.992188 -13.566406 12.078125 -15.546875 C 12.160156 -17.535156 12.113281 -18.988281 11.9375 -19.90625 C 11.707031 -19.914062 11.546875 -19.898438 11.453125 -19.859375 C 10.898438 -18.367188 9.429688 -15.03125 7.046875 -9.84375 Z M 11.671875 -9.65625 "/></g></g></g><g fill="#ffffff" fill-opacity="1"><g transform="translate(203.210583, 191.796641)"><g><path d="M 8.015625 0.53125 C 6.617188 0.925781 4.972656 0.984375 3.078125 0.703125 C 2.429688 0.597656 1.859375 0.453125 1.359375 0.265625 C 1.578125 -1.203125 2.695312 -4.421875 4.71875 -9.390625 C 6.738281 -14.367188 7.851562 -17.523438 8.0625 -18.859375 C 8.132812 -19.398438 7.835938 -20.179688 7.171875 -21.203125 L 6.875 -21.671875 L 7.078125 -22.40625 C 10.191406 -22.476562 13.601562 -22.238281 17.3125 -21.6875 C 19.539062 -21.351562 21.234375 -20.660156 22.390625 -19.609375 C 23.554688 -18.566406 24.019531 -17.226562 23.78125 -15.59375 C 23.539062 -13.957031 22.875 -12.53125 21.78125 -11.3125 C 20.6875 -10.09375 19.257812 -9.222656 17.5 -8.703125 C 17.863281 -6.109375 18.273438 -4.054688 18.734375 -2.546875 C 19.203125 -1.046875 19.644531 -0.265625 20.0625 -0.203125 C 20.425781 -0.148438 21 -0.203125 21.78125 -0.359375 L 22.21875 -0.421875 L 22.734375 1.5 C 20.554688 2.707031 18.378906 3.148438 16.203125 2.828125 C 14.035156 2.503906 12.78125 1.195312 12.4375 -1.09375 C 12.144531 -3.09375 12.03125 -5.535156 12.09375 -8.421875 L 10.90625 -8.59375 C 9.207031 -4.070312 8.242188 -1.03125 8.015625 0.53125 Z M 12.71875 -11.296875 C 13.4375 -11.191406 14.085938 -11.320312 14.671875 -11.6875 C 15.265625 -12.0625 15.75 -12.582031 16.125 -13.25 C 16.832031 -14.582031 17.28125 -15.90625 17.46875 -17.21875 C 17.664062 -18.539062 17.171875 -19.289062 15.984375 -19.46875 C 15.617188 -19.519531 15.257812 -19.535156 14.90625 -19.515625 C 14.769531 -18.835938 13.8125 -16.160156 12.03125 -11.484375 C 12.1875 -11.410156 12.414062 -11.347656 12.71875 -11.296875 Z M 12.71875 -11.296875 "/></g></g></g><g fill="#ffffff" fill-opacity="1"><g transform="translate(224.198879, 194.952658)"><g><path d="M 8.8125 2.4375 C 6.039062 1.8125 4.109375 0.441406 3.015625 -1.671875 C 2.421875 -2.816406 2.28125 -4.085938 2.59375 -5.484375 C 3.019531 -7.347656 4.023438 -8.726562 5.609375 -9.625 C 7.203125 -10.53125 8.925781 -10.875 10.78125 -10.65625 C 8.1875 -12.039062 7.164062 -13.953125 7.71875 -16.390625 C 8.144531 -18.273438 9.296875 -19.585938 11.171875 -20.328125 C 13.046875 -21.066406 15.019531 -21.195312 17.09375 -20.71875 C 19.175781 -20.25 20.8125 -19.429688 22 -18.265625 C 23.195312 -17.097656 23.632812 -15.804688 23.3125 -14.390625 C 23.125 -13.578125 22.734375 -12.863281 22.140625 -12.25 L 21.796875 -11.9375 C 20.910156 -12.144531 19.976562 -12.5 19 -13 C 18.03125 -13.507812 17.332031 -14.039062 16.90625 -14.59375 L 18 -17.890625 C 17.695312 -18.128906 17.382812 -18.285156 17.0625 -18.359375 C 16.382812 -18.515625 15.78125 -18.265625 15.25 -17.609375 C 14.71875 -16.960938 14.34375 -16.15625 14.125 -15.1875 C 13.90625 -14.226562 13.832031 -13.4375 13.90625 -12.8125 C 13.988281 -12.195312 14.222656 -11.691406 14.609375 -11.296875 C 14.992188 -10.898438 15.34375 -10.601562 15.65625 -10.40625 C 15.96875 -10.207031 16.414062 -9.96875 17 -9.6875 L 16.3125 -7.84375 C 14.789062 -8.1875 13.289062 -8.070312 11.8125 -7.5 C 10.34375 -6.9375 9.445312 -5.929688 9.125 -4.484375 C 8.882812 -3.441406 9.039062 -2.609375 9.59375 -1.984375 C 10.144531 -1.367188 10.878906 -0.957031 11.796875 -0.75 C 12.710938 -0.539062 13.726562 -0.550781 14.84375 -0.78125 C 15.96875 -1.007812 16.96875 -1.398438 17.84375 -1.953125 L 19 -0.125 C 17.757812 0.96875 16.203125 1.769531 14.328125 2.28125 C 12.453125 2.800781 10.613281 2.851562 8.8125 2.4375 Z M 8.8125 2.4375 "/></g></g></g><g fill="#ffffff" fill-opacity="1"><g transform="translate(241.419908, 198.749083)"><g><path d="M 10.515625 9.53125 C 9.378906 9.863281 8.421875 10.015625 7.640625 9.984375 C 6.867188 9.953125 6.046875 9.800781 5.171875 9.53125 C 4.304688 9.257812 3.597656 8.722656 3.046875 7.921875 C 2.503906 7.117188 2.363281 6.296875 2.625 5.453125 C 2.882812 4.609375 3.3125 3.953125 3.90625 3.484375 C 4.507812 3.023438 5.273438 2.71875 6.203125 2.5625 C 7.835938 2.257812 9.789062 2.21875 12.0625 2.4375 C 12.320312 2.125 12.8125 1.410156 13.53125 0.296875 C 12.539062 0.484375 11.332031 0.566406 9.90625 0.546875 C 8.476562 0.523438 7.253906 0.359375 6.234375 0.046875 C 5.222656 -0.265625 4.472656 -0.863281 3.984375 -1.75 C 3.503906 -2.644531 3.445312 -3.6875 3.8125 -4.875 C 4.1875 -6.070312 5.253906 -8.128906 7.015625 -11.046875 C 8.785156 -13.960938 9.878906 -16.101562 10.296875 -17.46875 C 10.421875 -17.875 10.445312 -18.34375 10.375 -18.875 C 10.300781 -19.40625 10.203125 -19.835938 10.078125 -20.171875 L 9.890625 -20.65625 L 10.203125 -21.265625 C 11.660156 -21.273438 14.023438 -20.773438 17.296875 -19.765625 C 17.492188 -18.929688 17.40625 -17.914062 17.03125 -16.71875 C 16.664062 -15.53125 15.546875 -13.367188 13.671875 -10.234375 C 11.804688 -7.109375 10.78125 -5.234375 10.59375 -4.609375 C 10.257812 -3.523438 10.472656 -2.867188 11.234375 -2.640625 C 12.265625 -2.316406 13.617188 -2.320312 15.296875 -2.65625 C 16.929688 -5.445312 18.445312 -8.222656 19.84375 -10.984375 C 21.25 -13.742188 22.15625 -15.78125 22.5625 -17.09375 C 23.34375 -17.15625 24.335938 -17.085938 25.546875 -16.890625 C 26.765625 -16.703125 27.753906 -16.492188 28.515625 -16.265625 L 29.21875 -16.046875 C 28.707031 -14.398438 27.363281 -11.625 25.1875 -7.71875 C 24.414062 -6.363281 23.285156 -4.367188 21.796875 -1.734375 C 20.304688 0.898438 18.894531 2.984375 17.5625 4.515625 C 16.226562 6.046875 15.003906 7.179688 13.890625 7.921875 C 12.773438 8.660156 11.648438 9.195312 10.515625 9.53125 Z M 5.203125 5.609375 C 5.054688 6.078125 5.296875 6.410156 5.921875 6.609375 C 6.546875 6.804688 7.347656 6.65625 8.328125 6.15625 C 9.304688 5.664062 10.070312 5.097656 10.625 4.453125 C 9.3125 4.265625 8.117188 4.269531 7.046875 4.46875 C 5.984375 4.664062 5.367188 5.046875 5.203125 5.609375 Z M 5.203125 5.609375 "/></g></g></g></svg>